<svg xmlns="http://www.w3.org/2000/svg" id="b" viewBox="0 0 336.07 132.39"><g id="c"><path d="M45.27,77.56l-14.62-20.21c-2.07-2.82-3.17-5.3-3.51-6.22h-.12v26.43h-8.35v-40.65h8.24l14.39,20.96c2.19,3.17,3.51,5.53,3.74,6.51h.12v-27.46h8.29v40.65h-8.17ZM71.89,44.28v9.15h15.9v7.25h-15.9v16.87h-8.98v-40.65h25.45v7.37h-16.47ZM95.92,61.44v-24.53h8.98v25.33c0,9.29,10.19,10.58,17.27,8.87v-34.2h8.75v40.3c-14.04,2.6-35.01,4.03-35.01-15.77ZM138.55,77.56v-6.56l18.6-26.77h-18.13v-7.31h29.02v6.45l-18.6,26.89h18.71v7.31h-29.6ZM202.36,77.56l-14.62-20.21c-2.07-2.82-3.17-5.3-3.51-6.22h-.12v26.43h-8.35v-40.65h8.24l14.39,20.96c2.19,3.17,3.51,5.53,3.74,6.51h.12v-27.46h8.29v40.65h-8.18ZM220.24,36.91h8.98v40.65h-8.98v-40.65ZM227.78,34.66h-6.22l6.45-8.92h9.21l-9.44,8.92ZM325.67,27.94h-34.28c-.69,0-1.26.58-1.26,1.26v34.46c0,4.91,3.99,8.9,8.9,8.9h18.89c4.91,0,8.9-3.99,8.9-8.9V29.08c0-.64-.5-1.14-1.14-1.14ZM291.39,18.88h12.55v-9.82h-13.7v1.77c0,2.5-2.03,4.53-4.53,4.53s-4.53-2.03-4.53-4.53v-6.3c0-2.5,2.03-4.53,4.53-4.53h45.83c2.5,0,4.53,2.03,4.53,4.53s-2.03,4.53-4.53,4.53h-18.54v9.82h12.67c5.6,0,10.2,4.61,10.2,10.2v34.58c0,9.86-8.1,17.96-17.96,17.96h-18.89c-9.86,0-17.96-8.1-17.96-17.96V29.2c0-5.69,4.63-10.32,10.32-10.32ZM319.91,84.73c0,3.94-3.25,7.19-7.19,7.19h-8.57c-3.95,0-7.19-3.24-7.19-7.19h22.95ZM259.29,55.79c1.32,2.48,4.55,8.18,5.93,10.42,2.88,4.67,3.75,5.64,5.3,5.64.4,0,.98-.12,1.32-.28l.35,5.87c-1.5.35-2.94.57-4.72.57-4.49,0-6.74-1.61-9.32-6.5-1.21-2.36-4.55-8.69-5.88-11.34-1.49.92-2.7,1.61-4.37,2.36,0,10.51.18,21.79.18,32.56,0,15.52,12.72,28.24,28.24,28.24s28.24-12.72,28.24-28.24h9.06c0,20.52-16.78,37.3-37.3,37.3s-37.3-16.78-37.3-37.3c0-19.4-.1-38.7-.1-58.18h8.98v17.85c6.5-3.74,11.46-9.33,14.1-17.85h9.5c-2.53,8.23-6.79,14.34-12.21,18.89ZM0,36.91h8.98v40.65H0v-40.65Z" fill="#262f36" stroke-width="0"></path><path d="M322.86,41.29v22.78c0,2.06-1.69,3.75-3.75,3.75h-20.34c-2.06,0-3.75-1.69-3.75-3.75v-22.78c7.88-4.19,14.37,10.05,27.84,0" fill="#efb829" fill-rule="evenodd" stroke-width="0"></path></g></svg>